<svg width="24" height="24" viewBox="0 0 24 24" fill="none" xmlns="http://www.w3.org/2000/svg">
  <path d="M12 2C6.48 2 2 6.48 2 12C2 17.52 6.48 22 12 22C17.52 22 22 17.52 22 12C22 6.48 17.52 2 12 2ZM12 20C7.59 20 4 16.41 4 12C4 7.59 7.59 4 12 4C16.41 4 20 7.59 20 12C20 16.41 16.41 20 12 20Z" fill="#3CAD72"/>
  <path d="M12 6C10.9 6 10 6.9 10 8C10 9.1 10.9 10 12 10C13.1 10 14 9.1 14 8C14 6.9 13.1 6 12 6Z" fill="#2D82B7"/>
  <path d="M12 12C10.9 12 10 12.9 10 14C10 15.1 10.9 16 12 16C13.1 16 14 15.1 14 14C14 12.9 13.1 12 12 12Z" fill="#9E65A9"/>
  <path d="M18 12C18 14.5 16.5 16.69 14.29 17.6C13.61 17.91 12.83 18.08 12 18.08C8.69 18.08 6 15.39 6 12.08C6 8.77 8.69 6.08 12 6.08C13.36 6.08 14.62 6.52 15.66 7.26C17.07 8.3 18 10.05 18 12Z" fill="#CF7D34" fill-opacity="0.3"/>
</svg>